<?xml version="1.0" encoding="iso-8859-1"?>
<!-- Generator: Adobe Illustrator 19.0.0, SVG Export Plug-In . SVG Version: 6.00 Build 0)  -->
<svg version="1.1" id="Capa_1" xmlns="http://www.w3.org/2000/svg" xmlns:xlink="http://www.w3.org/1999/xlink" x="0px" y="0px"
	 viewBox="0 0 512 512" style="enable-background:new 0 0 512 512;" xml:space="preserve">
<path style="fill:#896748;" d="M406,60H106c-24.901,0-45,20.099-45,45v362c0,24.899,20.099,45,45,45h300c24.901,0,45-20.101,45-45
	V105C451,80.099,430.901,60,406,60z"/>
<path style="fill:#73553A;" d="M451,105v362c0,24.899-20.099,45-45,45H256V60h150C430.901,60,451,80.099,451,105z"/>
<path style="fill:#E5E5E5;" d="M406,90H106c-8.401,0-15,6.599-15,15v362c0,8.399,6.599,15,15,15h300c8.401,0,15-6.601,15-15V105
	C421,96.599,414.401,90,406,90z"/>
<path style="fill:#D9D9D9;" d="M421,105v362c0,8.399-6.599,15-15,15H256V90h150C414.401,90,421,96.599,421,105z"/>
<path style="fill:#FEA832;" d="M346,60v30H166V60c0-16.5,13.5-30,30-30h30c0-16.5,13.5-30,30-30s30,13.5,30,30h30
	C332.5,30,346,43.5,346,60z"/>
<path style="fill:#FE9923;" d="M346,60v30h-90V0c16.5,0,30,13.5,30,30h30C332.5,30,346,43.5,346,60z"/>
<path style="fill:#17ACE8;" d="M391,317c0,37.2-15,71.1-39.6,95.4C327.1,437,293.2,452,256,452c-74.7,0-135-60.3-135-135
	c0-37.2,15-71.1,39.6-95.4C184.9,197,218.8,182,256,182s71.1,15,95.4,39.6C376,245.9,391,279.8,391,317z"/>
<path style="fill:#1689FC;" d="M391,317c0,37.2-15,71.1-39.6,95.4C327.1,437,293.2,452,256,452V182c37.2,0,71.1,15,95.4,39.6
	C376,245.9,391,279.8,391,317z"/>
<path style="fill:#E5E5E5;" d="M326.499,297.499L256,368l-4.501,4.499C248.8,375.5,244.9,377,241,377s-7.8-1.5-10.499-4.501l-45-45
	c-6-5.7-6-15.3,0-21c5.7-5.999,15.298-5.999,20.999,0l34.501,34.2l15-15l49.501-49.2c5.7-5.999,15.298-5.999,20.999,0
	C332.5,282.199,332.5,291.799,326.499,297.499z"/>
<path style="fill:#D9D9D9;" d="M326.499,297.499L256,368v-42.301l49.501-49.2c5.7-5.999,15.298-5.999,20.999,0
	C332.5,282.199,332.5,291.799,326.499,297.499z"/>
<g>
</g>
<g>
</g>
<g>
</g>
<g>
</g>
<g>
</g>
<g>
</g>
<g>
</g>
<g>
</g>
<g>
</g>
<g>
</g>
<g>
</g>
<g>
</g>
<g>
</g>
<g>
</g>
<g>
</g>
</svg>
